#!OML:ASF F:\VICON\USERDATA\INSTALL\Justin_Nancy\Justin_Nancy.ASF
:FULLY-SPECIFIED
:DEGREES
67
root -8.52083 17.697 -6.65847 7.41649 25.5344 -3.31796
lowerback 6.92691 -2.02411 -4.44709
upperback -1.00747 -2.91378 3.60289
thorax -4.53109 -1.28273 6.59429
lowerneck -24.2308 -1.32951 -7.18769
upperneck 15.4687 0.00411827 3.04588
head 8.79628 -0.0938933 2.21048
rclavicle -8.34896e-015 -1.94809e-014
rhumerus -56.167 7.48434 -85.3817
rradius 110.855
rwrist -5.11492
rhand -11.6 24.694
rfingers 7.12502
rthumb 14.4425 -4.7835
lclavicle -8.34896e-015 -1.94809e-014
lhumerus -35.6415 -10.3208 91.4623
lradius 108.735
lwrist 25.4651
lhand -17.3584 8.83498
lfingers 7.12502
lthumb 8.88953 38.6277
rfemur -37.2161 2.90077 12.0153
rtibia 51.5205
rfoot 0.270301 -8.73883
rtoes -6.52198
lfemur 2.81085 -0.254433 -31.4553
ltibia 26.7853
lfoot 17.6079 -5.71467
ltoes -8.18645
68
root -8.34871 17.7657 -6.33256 7.88464 25.3375 -3.47252
lowerback 6.49761 -1.86663 -4.16379
upperback -1.21835 -2.66176 3.6882
thorax -4.55413 -1.15786 6.48454
lowerneck -24.2011 -1.38493 -7.2735
upperneck 15.4906 -0.033693 2.99618
head 8.80138 -0.123173 2.20176
rclavicle 8.77137e-015 2.90226e-014
rhumerus -56.2441 7.45123 -85.1991
rradius 110.875
rwrist -5.35411
rhand -11.3373 24.5826
rfingers 7.12502
rthumb 14.6955 -4.87658
lclavicle 8.77137e-015 2.90226e-014
lhumerus -36.417 -10.8597 91.8793
lradius 108.685
lwrist 25.6832
lhand -16.5758 9.16
lfingers 7.12502
lthumb 9.64462 38.9192
rfemur -37.3529 2.99299 12.3771
rtibia 46.7027
rfoot 0.234092 -8.64104
rtoes -7.51727
lfemur 3.09412 -1.07735 -31.1773
ltibia 26.1625
lfoot 20.9528 -5.63993
ltoes -5.15094
69
root -8.17778 17.8374 -5.99751 8.23517 25.4277 -3.74264
lowerback 5.92598 -1.81004 -3.78389
upperback -1.18432 -2.53656 3.7875
thorax -4.22345 -1.11626 6.33068
lowerneck -25.3191 -1.80714 -8.12744
upperneck 16.1124 -0.41497 3.90957
head 9.23059 -0.253685 2.61703
rclavicle 2.17669e-014 -3.27995e-014
rhumerus -55.8014 7.38404 -85.0338
rradius 110.741
rwrist -5.65448
rhand -10.1654 24.6727
rfingers 7.12502
rthumb 15.8244 -4.70053
lclavicle 2.17669e-014 -3.27995e-014
lhumerus -36.9316 -11.3766 91.983
lradius 108.487
lwrist 25.4574
lhand -15.3954 8.487
lfingers 7.12502
lthumb 10.7834 38.1902
rfemur -37.1582 2.73963 13.0261
rtibia 41.8738
rfoot -0.0787452 -8.27811
rtoes -6.52787
lfemur 3.30437 -2.01948 -30.7024
ltibia 25.9811
lfoot 23.3685 -6.82008
ltoes -2.71864
70
root -8.00522 17.8863 -5.6677 8.67662 25.7792 -3.76043
lowerback 5.49072 -1.80976 -3.4349
upperback -1.23811 -2.50104 3.77642
thorax -4.05256 -1.11168 6.09638
lowerneck -26.6871 -2.70913 -9.63354
upperneck 16.9005 -1.30007 5.37208
head 9.821 -0.589428 3.26692
rclavicle 7.25564e-015 3.1408e-014
rhumerus -55.5091 7.26861 -84.9081
rradius 110.639
rwrist -5.85519
rhand -9.61636 24.6011
rfingers 7.12502
rthumb 16.3531 -4.72948
lclavicle 7.25564e-015 3.1408e-014
lhumerus -37.6886 -12.0632 92.0837
lradius 108.203
lwrist 24.734
lhand -14.5307 7.22655
lfingers 7.12502
lthumb 11.6174 36.8845
rfemur -36.8192 2.11027 13.4561
rtibia 37.1938
rfoot -0.137724 -6.87654
rtoes -9.53363
lfemur 3.22126 -3.25141 -30.4724
ltibia 26.4362
lfoot 25.144 -8.79571
ltoes -0.269827
71
root -7.83536 17.9259 -5.33349 8.88997 26.7911 -3.47355
lowerback 5.47248 -2.01457 -3.28247
upperback -1.26268 -2.76588 3.71678
thorax -4.04311 -1.24805 5.96648
lowerneck -27.4183 -2.81012 -10.14
upperneck 17.5867 -1.31666 5.95738
head 10.2022 -0.563886 3.57779
rclavicle -1.72943e-014 1.98785e-015
rhumerus -55.3194 7.04933 -84.7982
rradius 110.621
rwrist -5.86431
rhand -9.92708 24.5819
rfingers 7.12502
rthumb 16.0539 -4.77305
lclavicle -1.72943e-014 1.98785e-015
lhumerus -38.2384 -12.6199 92.2408
lradius 107.829
lwrist 24.3011
lhand -13.9962 7.22071
lfingers 7.12502
lthumb 12.1327 36.8489
rfemur -35.8401 1.02753 13.7412
rtibia 32.8168
rfoot -0.174355 -5.22989
rtoes -14.7669
lfemur 3.47422 -4.84142 -30.3921
ltibia 27.1197
lfoot 26.7071 -11.0174
ltoes 0.15912
72
root -7.67795 17.9499 -5.01997 9.00573 26.8419 -3.26966
lowerback 5.60409 -1.82701 -3.36934
upperback -1.23668 -2.52606 3.65816
thorax -4.11957 -1.12503 5.94094
lowerneck -27.3523 -2.94988 -10.1988
upperneck 17.5125 -1.48126 5.91683
head 10.1792 -0.64812 3.54355
rclavicle 3.90612e-014 -2.80286e-014
rhumerus -55.0386 6.72296 -84.5662
rradius 110.598
rwrist -5.94701
rhand -10.2519 24.5051
rfingers 7.12502
rthumb 15.7411 -4.87478
lclavicle 3.90612e-014 -2.80286e-014
lhumerus -38.4039 -13.0993 92.4901
lradius 107.237
lwrist 24.3455
lhand -13.6988 7.50177
lfingers 7.12502
lthumb 12.4195 37.1128
rfemur -35.2056 0.509389 14.208
rtibia 28.9372
rfoot -0.115867 -3.36161
rtoes -19.4977
lfemur 3.57697 -5.92147 -30.5645
ltibia 28.0706
lfoot 27.5537 -11.8288
ltoes 1.06115
73
root -7.52848 17.9726 -4.70064 9.15851 27.1184 -2.87389
lowerback 5.78342 -1.69431 -3.78161
upperback -1.24746 -2.38493 3.61415
thorax -4.23641 -1.04097 6.12776
lowerneck -26.7058 -3.09015 -10.066
upperneck 16.8315 -1.68579 5.51098
head 9.83754 -0.778234 3.32456
rclavicle -1.25234e-014 2.38542e-015
rhumerus -54.7756 6.42997 -84.3056
rradius 110.669
rwrist -6.11227
rhand -10.2453 24.3706
rfingers 7.12502
rthumb 15.7474 -5.00877
lclavicle -1.25234e-014 2.38542e-015
lhumerus -39.0337 -13.4942 92.77
lradius 106.861
lwrist 24.5801
lhand -13.606 7.28502
lfingers 7.12502
lthumb 12.509 36.8906
rfemur -34.5383 -0.0636884 14.6477
rtibia 25.7414
rfoot -0.196464 -1.72351
rtoes -23.4126
lfemur 3.70118 -6.97205 -30.7682
ltibia 29.3068
lfoot 27.5094 -11.9692
ltoes 3.36297
